<svg width="548" height="418" viewBox="0 0 548 418" fill="none" xmlns="http://www.w3.org/2000/svg">
<path d="M546.001 231.545L543.657 334.244H520.788L518.515 231.545H546.001ZM532.223 378.562C527.914 378.562 524.221 377.047 521.143 374.017C518.113 370.987 516.598 367.294 516.598 362.938C516.598 358.676 518.113 355.03 521.143 352C524.221 348.97 527.914 347.455 532.223 347.455C536.437 347.455 540.083 348.97 543.16 352C546.285 355.03 547.848 358.676 547.848 362.938C547.848 365.826 547.114 368.454 545.646 370.821C544.225 373.188 542.332 375.082 539.964 376.503C537.644 377.876 535.064 378.562 532.223 378.562Z" fill="url(#paint0_linear_2232_9)"/>
<path d="M490.995 296.744L467.557 299.301C466.894 296.934 465.734 294.708 464.077 292.625C462.467 290.542 460.289 288.861 457.543 287.582C454.797 286.304 451.435 285.665 447.458 285.665C442.107 285.665 437.609 286.825 433.963 289.145C430.365 291.465 428.589 294.472 428.637 298.165C428.589 301.337 429.749 303.918 432.117 305.906C434.531 307.895 438.509 309.528 444.048 310.807L462.656 314.784C472.978 317.009 480.649 320.537 485.668 325.366C490.734 330.196 493.291 336.517 493.338 344.33C493.291 351.195 491.279 357.256 487.301 362.511C483.371 367.72 477.903 371.792 470.895 374.727C463.888 377.663 455.838 379.131 446.747 379.131C433.395 379.131 422.647 376.337 414.503 370.75C406.359 365.116 401.506 357.279 399.943 347.241L425.014 344.827C426.151 349.751 428.566 353.468 432.259 355.977C435.952 358.487 440.758 359.741 446.676 359.741C452.784 359.741 457.685 358.487 461.378 355.977C465.119 353.468 466.989 350.366 466.989 346.673C466.989 343.548 465.781 340.968 463.367 338.932C460.999 336.896 457.306 335.333 452.287 334.244L433.679 330.338C423.215 328.16 415.474 324.491 410.455 319.33C405.436 314.121 402.95 307.54 402.997 299.585C402.95 292.862 404.773 287.038 408.466 282.114C412.207 277.142 417.391 273.307 424.02 270.608C430.696 267.862 438.39 266.489 447.102 266.489C459.887 266.489 469.948 269.211 477.287 274.656C484.673 280.101 489.243 287.464 490.995 296.744Z" fill="url(#paint1_linear_2232_9)"/>
<path d="M279.772 417.909V267.909H305.057V285.949H306.548C307.874 283.297 309.744 280.48 312.159 277.497C314.574 274.467 317.841 271.886 321.96 269.756C326.079 267.578 331.335 266.489 337.727 266.489C346.155 266.489 353.754 268.643 360.525 272.952C367.343 277.213 372.741 283.534 376.718 291.915C380.743 300.248 382.755 310.475 382.755 322.597C382.755 334.576 380.79 344.756 376.861 353.136C372.931 361.517 367.58 367.909 360.809 372.313C354.039 376.716 346.368 378.918 337.798 378.918C331.548 378.918 326.363 377.876 322.244 375.793C318.125 373.709 314.81 371.2 312.301 368.264C309.839 365.281 307.921 362.464 306.548 359.813H305.483V417.909H279.772ZM304.986 322.455C304.986 329.509 305.98 335.688 307.968 340.991C310.004 346.295 312.916 350.438 316.704 353.42C320.54 356.356 325.18 357.824 330.625 357.824C336.307 357.824 341.065 356.309 344.9 353.278C348.736 350.201 351.624 346.01 353.565 340.707C355.554 335.357 356.548 329.273 356.548 322.455C356.548 315.684 355.577 309.67 353.636 304.415C351.695 299.159 348.807 295.04 344.971 292.057C341.136 289.074 336.354 287.582 330.625 287.582C325.132 287.582 320.468 289.027 316.633 291.915C312.798 294.803 309.886 298.851 307.897 304.06C305.956 309.268 304.986 315.4 304.986 322.455Z" fill="url(#paint2_linear_2232_9)"/>
<path d="M205.678 379.131C195.025 379.131 185.792 376.787 177.979 372.099C170.167 367.412 164.106 360.854 159.797 352.426C155.536 343.998 153.405 334.15 153.405 322.881C153.405 311.612 155.536 301.74 159.797 293.264C164.106 284.789 170.167 278.207 177.979 273.52C185.792 268.832 195.025 266.489 205.678 266.489C216.331 266.489 225.564 268.832 233.377 273.52C241.189 278.207 247.226 284.789 251.488 293.264C255.796 301.74 257.951 311.612 257.951 322.881C257.951 334.15 255.796 343.998 251.488 352.426C247.226 360.854 241.189 367.412 233.377 372.099C225.564 376.787 216.331 379.131 205.678 379.131ZM205.82 358.534C211.597 358.534 216.426 356.948 220.309 353.776C224.191 350.556 227.08 346.247 228.973 340.849C230.915 335.452 231.885 329.438 231.885 322.81C231.885 316.134 230.915 310.097 228.973 304.699C227.08 299.254 224.191 294.921 220.309 291.702C216.426 288.482 211.597 286.872 205.82 286.872C199.901 286.872 194.977 288.482 191.047 291.702C187.165 294.921 184.253 299.254 182.312 304.699C180.418 310.097 179.471 316.134 179.471 322.81C179.471 329.438 180.418 335.452 182.312 340.849C184.253 346.247 187.165 350.556 191.047 353.776C194.977 356.948 199.901 358.534 205.82 358.534Z" fill="url(#paint3_linear_2232_9)"/>
<path d="M134.318 304.273C134.318 319.945 131.382 333.368 125.511 344.543C119.687 355.67 111.733 364.192 101.648 370.111C91.6098 376.029 80.2225 378.989 67.4857 378.989C54.749 378.989 43.338 376.029 33.2528 370.111C23.2149 364.145 15.2603 355.598 9.38912 344.472C3.56525 333.297 0.65332 319.898 0.65332 304.273C0.65332 288.6 3.56525 275.201 9.38912 264.074C15.2603 252.9 23.2149 244.353 33.2528 238.435C43.338 232.516 54.749 229.557 67.4857 229.557C80.2225 229.557 91.6098 232.516 101.648 238.435C111.733 244.353 119.687 252.9 125.511 264.074C131.382 275.201 134.318 288.6 134.318 304.273ZM107.827 304.273C107.827 293.241 106.098 283.937 102.642 276.361C99.2329 268.738 94.498 262.985 88.4374 259.102C82.3768 255.172 75.3929 253.207 67.4857 253.207C59.5785 253.207 52.5946 255.172 46.534 259.102C40.4734 262.985 35.7149 268.738 32.2584 276.361C28.8493 283.937 27.1448 293.241 27.1448 304.273C27.1448 315.305 28.8493 324.633 32.2584 332.256C35.7149 339.831 40.4734 345.584 46.534 349.514C52.5946 353.397 59.5785 355.338 67.4857 355.338C75.3929 355.338 82.3768 353.397 88.4374 349.514C94.498 345.584 99.2329 339.831 102.642 332.256C106.098 324.633 107.827 315.305 107.827 304.273Z" fill="url(#paint4_linear_2232_9)"/>
<path opacity="0.35" fill-rule="evenodd" clip-rule="evenodd" d="M323.948 94.4947C336.939 95.2685 350.206 90.6858 360.136 80.7553C378.621 62.2699 378.621 32.3494 360.136 13.864C341.651 -4.62134 311.73 -4.62134 293.245 13.864C283.314 23.7945 278.732 37.061 279.505 50.0524C279.944 57.4207 288.997 60.7567 294.216 55.5378L310.269 39.4856C316.975 32.6933 327.808 32.6933 334.514 39.4856C341.307 46.1919 341.307 57.0252 334.514 63.7316L318.462 79.7837C313.252 85.0026 316.588 94.0562 323.948 94.4947ZM215.864 158.136C234.349 176.621 264.27 176.621 282.755 158.136C292.686 148.205 297.268 134.939 296.495 121.948C296.056 114.579 287.003 111.243 281.784 116.462L265.732 132.514C259.025 139.307 248.192 139.307 241.486 132.514C234.693 125.808 234.693 114.975 241.486 108.268L257.538 92.2163C262.748 86.9974 259.412 77.9438 252.052 77.5053C239.061 76.7315 225.795 81.3142 215.864 91.2447C197.379 109.73 197.379 139.651 215.864 158.136Z" fill="#54C1BD"/>
<path opacity="0.35" d="M322.328 172C318.698 172 315.318 169.721 314.114 166.119L305.449 140.324C303.932 135.819 306.384 130.952 310.925 129.448C315.5 127.934 320.37 130.385 321.886 134.882L330.551 160.676C332.068 165.182 329.616 170.048 325.075 171.553C324.157 171.862 323.229 172 322.328 172Z" fill="#3A6178"/>
<path opacity="0.35" d="M365.395 129C364.5 129 363.58 128.853 362.677 128.55L336.879 119.888C332.382 118.372 329.94 113.47 331.444 108.932C332.949 104.402 337.765 101.916 342.323 103.458L368.121 112.119C372.618 113.635 375.06 118.537 373.556 123.076C372.352 126.705 368.998 129 365.395 129Z" fill="#3A6178"/>
<path opacity="0.35" d="M262.328 43C258.698 43 255.318 40.7217 254.114 37.1193L245.449 11.3268C243.932 6.82169 246.384 1.9555 250.925 0.450933C255.5 -1.07083 260.37 1.38806 261.886 5.88456L270.551 31.6771C272.068 36.1822 269.616 41.0484 265.075 42.5529C264.157 42.8624 263.229 43 262.328 43Z" fill="#3A6178"/>
<path opacity="0.35" d="M236.401 69C235.507 69 234.586 68.8527 233.683 68.5494L207.881 59.8847C203.374 58.377 200.94 53.4728 202.445 48.9325C203.942 44.3922 208.784 41.9314 213.317 43.4477L239.119 52.1124C243.626 53.6288 246.06 58.533 244.555 63.0733C243.359 66.7038 240.005 69 236.401 69Z" fill="#3A6178"/>
<defs>
<linearGradient id="paint0_linear_2232_9" x1="58.1621" y1="225.5" x2="521.312" y2="496.536" gradientUnits="userSpaceOnUse">
<stop stop-color="#54C1BD"/>
<stop offset="1" stop-color="#3A6178"/>
</linearGradient>
<linearGradient id="paint1_linear_2232_9" x1="58.1627" y1="225.5" x2="521.312" y2="496.536" gradientUnits="userSpaceOnUse">
<stop stop-color="#54C1BD"/>
<stop offset="1" stop-color="#3A6178"/>
</linearGradient>
<linearGradient id="paint2_linear_2232_9" x1="58.1623" y1="225.5" x2="521.312" y2="496.536" gradientUnits="userSpaceOnUse">
<stop stop-color="#54C1BD"/>
<stop offset="1" stop-color="#3A6178"/>
</linearGradient>
<linearGradient id="paint3_linear_2232_9" x1="58.1623" y1="225.5" x2="521.312" y2="496.536" gradientUnits="userSpaceOnUse">
<stop stop-color="#54C1BD"/>
<stop offset="1" stop-color="#3A6178"/>
</linearGradient>
<linearGradient id="paint4_linear_2232_9" x1="58.1625" y1="225.5" x2="521.312" y2="496.536" gradientUnits="userSpaceOnUse">
<stop stop-color="#54C1BD"/>
<stop offset="1" stop-color="#3A6178"/>
</linearGradient>
</defs>
</svg>